<?xml version="1.0" encoding="UTF-8" standalone="no"?>
<!-- Created with Inkscape (http://www.inkscape.org/) -->

<svg
   width="64mm"
   height="64mm"
   viewBox="0 0 64 64"
   version="1.1"
   id="svg1"
   inkscape:version="1.4.3 (0d15f75042, 2025-12-25)"
   sodipodi:docname="favicon.svg"
   xmlns:inkscape="http://www.inkscape.org/namespaces/inkscape"
   xmlns:sodipodi="http://sodipodi.sourceforge.net/DTD/sodipodi-0.dtd"
   xmlns:xlink="http://www.w3.org/1999/xlink"
   xmlns="http://www.w3.org/2000/svg"
   xmlns:svg="http://www.w3.org/2000/svg">
  <sodipodi:namedview
     id="namedview1"
     pagecolor="#ffffff"
     bordercolor="#000000"
     borderopacity="0.25"
     inkscape:showpageshadow="2"
     inkscape:pageopacity="0.0"
     inkscape:pagecheckerboard="0"
     inkscape:deskcolor="#d1d1d1"
     inkscape:document-units="mm"
     inkscape:export-bgcolor="#1c1a1747"
     inkscape:zoom="1.5489042"
     inkscape:cx="186.26072"
     inkscape:cy="120.40771"
     inkscape:window-width="1981"
     inkscape:window-height="1211"
     inkscape:window-x="0"
     inkscape:window-y="0"
     inkscape:window-maximized="1"
     inkscape:current-layer="layer1" />
  <defs
     id="defs1" />
  <g
     inkscape:label="Layer 1"
     inkscape:groupmode="layer"
     id="layer1">
    <rect
       style="fill:#f6f2ea;fill-opacity:1;stroke-width:0.264583"
       id="rect1"
       width="64"
       height="64"
       x="0"
       y="0" />
    <text
       xml:space="preserve"
       style="font-style:normal;font-variant:normal;font-weight:normal;font-stretch:normal;font-size:50.8px;font-family:'Source Serif 4';-inkscape-font-specification:'Source Serif 4, ';writing-mode:lr-tb;direction:ltr;white-space:pre;inline-size:40.7309;display:inline;fill:#1c1a17;fill-opacity:1;stroke-width:0.265;stroke-dasharray:none"
       x="24.112219"
       y="40.821564"
       id="text1"
       transform="matrix(1.2855525,0,0,1.2855525,-27.537834,-1.7081885)"><tspan
         x="24.112219"
         y="40.821564"
         id="tspan1">O</tspan></text>
    <path
       style="font-style:normal;font-variant:normal;font-weight:normal;font-stretch:normal;font-size:67.4925px;font-family:'Source Serif 4';-inkscape-font-specification:'Source Serif 4, ';writing-mode:lr-tb;direction:ltr;fill:#f6f2ea;fill-opacity:1;stroke-width:0.352;stroke-dasharray:none"
       sodipodi:type="inkscape:offset"
       inkscape:radius="1.20735"
       inkscape:original="M 44.263672 12.802734 C 41.152311 12.802734 38.367476 13.281108 35.90625 14.240234 C 33.491463 15.19936 31.586506 16.573866 30.193359 18.361328 C 28.800213 20.105193 28.103516 22.240927 28.103516 24.769531 C 28.103516 27.167346 28.660873 29.19489 29.775391 30.851562 C 30.936346 32.464638 32.492954 33.86 34.443359 35.037109 C 36.440203 36.170622 38.691555 37.193846 41.199219 38.109375 L 43.777344 39.089844 C 45.820625 39.78739 47.468824 40.506904 48.722656 41.248047 C 49.976488 41.98919 50.904116 42.839702 51.507812 43.798828 C 52.111509 44.714357 52.414063 45.870533 52.414062 47.265625 C 52.414063 48.747911 51.996044 50.076797 51.160156 51.253906 C 50.370707 52.431015 49.1644 53.34605 47.539062 54 C 45.960163 54.65395 43.961662 54.982422 41.546875 54.982422 C 39.828661 54.982422 38.29788 54.828614 36.951172 54.523438 C 35.686828 54.195995 34.495065 53.731832 33.353516 53.173828 L 31.794922 45.564453 L 27.40625 45.564453 L 27.197266 55.244141 C 28.63685 56.02888 30.635351 56.790107 33.189453 57.53125 C 35.743555 58.272393 38.576139 58.644531 41.6875 58.644531 C 45.170366 58.644531 48.188085 58.143348 50.742188 57.140625 C 53.342728 56.094306 55.36315 54.632468 56.802734 52.757812 C 58.242319 50.883157 58.962891 48.660092 58.962891 46.087891 C 58.962891 43.733672 58.427454 41.749794 57.359375 40.136719 C 56.337734 38.480047 54.805 37.063828 52.761719 35.886719 C 50.764875 34.70961 48.35031 33.5971 45.517578 32.550781 L 42.871094 31.634766 C 41.013565 30.937219 39.480831 30.219658 38.273438 29.478516 C 37.066044 28.737373 36.160337 27.907717 35.556641 26.992188 C 34.952944 26.033062 34.652344 24.899696 34.652344 23.591797 C 34.652344 22.153108 35.022613 20.911554 35.765625 19.865234 C 36.555075 18.775319 37.645916 17.945662 39.039062 17.378906 C 40.432209 16.768553 42.104282 16.464844 44.054688 16.464844 C 46.097969 16.464844 47.909382 16.791363 49.488281 17.445312 C 49.812383 17.56702 50.136836 17.858149 50.460938 18.005859 L 51.996094 25.162109 L 56.314453 25.162109 L 56.523438 16.072266 C 55.316044 15.24393 53.643971 14.501606 51.507812 13.847656 C 49.371654 13.15011 46.957089 12.802734 44.263672 12.802734 z "
       xlink:href="#text2-2"
       id="path1"
       inkscape:href="#text2-2"
       d="m 44.605469,13.816406 c -3.235116,-1e-6 -6.174911,0.497766 -8.796875,1.519532 a 1.2074708,1.2074708 0 0 0 -0.0078,0.002 c -2.576536,1.023369 -4.675163,2.527169 -6.210937,4.49414 -1.568834,1.965495 -2.351563,4.409437 -2.351563,7.158203 0,2.58491 0.611832,4.875323 1.876953,6.75586 a 1.2074708,1.2074708 0 0 0 0.02148,0.03125 c 1.267015,1.76044 2.956907,3.2653 5.02539,4.513672 a 1.2074708,1.2074708 0 0 0 0.02734,0.01758 c 2.064386,1.171853 4.376288,2.221171 6.9375,3.15625 l 2.5625,0.974609 a 1.2074708,1.2074708 0 0 0 0.03906,0.01367 c 1.990913,0.679668 3.571196,1.375211 4.720703,2.054687 1.130075,0.667991 1.900817,1.39473 2.378906,2.154297 a 1.2074708,1.2074708 0 0 0 0.01367,0.02148 c 0.448594,0.680311 0.707031,1.5822 0.707031,2.802734 0,1.255297 -0.333707,2.306773 -1.03125,3.289063 A 1.2074708,1.2074708 0 0 0 50.5,52.802734 c -0.633251,0.944209 -1.616521,1.713115 -3.072266,2.298828 a 1.2074708,1.2074708 0 0 0 -0.01172,0.0039 c -1.378508,0.570951 -3.222044,0.890625 -5.527344,0.890625 -1.641678,0 -3.081205,-0.148358 -4.31836,-0.427735 -0.983747,-0.256435 -1.90882,-0.64481 -2.824218,-1.0625 l -1.425782,-6.96289 a 1.2074708,1.2074708 0 0 0 -1.183593,-0.964844 h -4.388672 a 1.2074708,1.2074708 0 0 0 -1.207031,1.181641 l -0.208985,9.679687 a 1.2074708,1.2074708 0 0 0 0.628906,1.085938 c 1.56379,0.852445 3.629662,1.630889 6.234375,2.386718 2.679668,0.77758 5.626353,1.160157 8.833985,1.160157 3.598691,0 6.768254,-0.51696 9.496094,-1.587891 a 1.2074708,1.2074708 0 0 0 0.0098,-0.0039 c 2.760914,-1.110845 4.979127,-2.700592 6.566406,-4.767578 1.602196,-2.08641 2.408204,-4.607224 2.408204,-7.404297 0,-2.52998 -0.583923,-4.765551 -1.794922,-6.601563 -1.141532,-1.843067 -2.830374,-3.390049 -4.998047,-4.640625 l -0.0039,-0.002 c -2.076267,-1.223584 -4.552603,-2.360914 -7.435547,-3.425781 a 1.2074708,1.2074708 0 0 0 -0.02344,-0.0078 l -2.617187,-0.90625 c -1.807051,-0.67859 -3.275372,-1.370104 -4.390625,-2.054687 -1.089669,-0.66888 -1.847021,-1.382576 -2.330078,-2.111328 -0.467564,-0.747087 -0.714844,-1.628045 -0.714844,-2.746094 0,-1.226931 0.297562,-2.186629 0.884765,-3.017578 l 0.002,-0.002 c 0.650098,-0.896636 1.533097,-1.579956 2.748046,-2.074219 a 1.2074708,1.2074708 0 0 0 0.0293,-0.01367 c 1.20275,-0.526937 2.706181,-0.8125 4.53125,-0.8125 1.914658,0 3.562154,0.305278 4.970703,0.888672 a 1.2074708,1.2074708 0 0 0 0.03906,0.01563 c -0.0076,-0.0028 0.24607,0.134681 0.326172,0.191406 l 1.425781,6.648438 a 1.2074708,1.2074708 0 0 0 1.179688,0.953125 h 4.318359 a 1.2074708,1.2074708 0 0 0 1.207031,-1.179688 l 0.208985,-9.089844 a 1.2074708,1.2074708 0 0 0 -0.523438,-1.023437 c -1.357691,-0.931448 -3.132026,-1.70403 -5.341797,-2.380859 -2.27467,-0.740501 -4.811126,-1.09961 -7.601562,-1.09961 z" />
    <text
       xml:space="preserve"
       style="font-style:normal;font-variant:normal;font-weight:normal;font-stretch:normal;font-size:67.4925px;font-family:'Source Serif 4';-inkscape-font-specification:'Source Serif 4, ';writing-mode:lr-tb;direction:ltr;fill:#1c1a17;fill-opacity:1;stroke-width:0.352;stroke-dasharray:none"
       x="23.653246"
       y="59.512447"
       id="text2-2"
       transform="scale(1.0320751,0.96892173)"><tspan
         sodipodi:role="line"
         id="tspan2-0"
         style="font-style:normal;font-variant:normal;font-weight:normal;font-stretch:normal;font-family:'Source Serif 4';-inkscape-font-specification:'Source Serif 4, ';stroke-width:0.352;stroke-dasharray:none"
         x="23.653246"
         y="59.512447">S</tspan></text>
  </g>
</svg>
